<svg xmlns="http://www.w3.org/2000/svg" version="1.1" xmlns:xlink="http://www.w3.org/1999/xlink" width="200" height="200"><svg xmlns="http://www.w3.org/2000/svg" version="1.1" xmlns:xlink="http://www.w3.org/1999/xlink" width="200" height="200"><svg xmlns="http://www.w3.org/2000/svg" version="1.1" xmlns:xlink="http://www.w3.org/1999/xlink" viewBox="0 0 200 200"><rect width="200" height="200" fill="url('#gradient')"></rect><defs><linearGradient id="gradient" gradientTransform="rotate(45 0.5 0.5)"><stop offset="0%" stop-color="#ffffff"></stop><stop offset="100%" stop-color="#fffefe"></stop></linearGradient></defs><g><g fill="#547795" transform="matrix(3.5987220447284347,0,0,3.5987220447284347,19.13601338497746,125.22875963917937)" stroke="#5b8d84" stroke-width="0"><path d="M8.87 0L6.36-5.02L4.50-5.02L4.50 0L1.07 0L1.07-14.22L6.67-14.22Q9.20-14.22 10.63-13.10Q12.05-11.97 12.05-9.92L12.05-9.92Q12.05-8.44 11.45-7.46Q10.85-6.48 9.57-5.88L9.57-5.88L12.54-0.15L12.54 0L8.87 0ZM4.50-11.57L4.50-7.67L6.67-7.67Q7.65-7.67 8.14-8.18Q8.63-8.69 8.63-9.61Q8.63-10.53 8.13-11.05Q7.64-11.57 6.67-11.57L6.67-11.57L4.50-11.57ZM23.21 0L19.92 0Q19.75-0.32 19.61-0.95L19.61-0.95Q18.70 0.20 17.07 0.20L17.07 0.20Q15.58 0.20 14.53-0.71Q13.49-1.61 13.49-2.98L13.49-2.98Q13.49-4.70 14.76-5.58Q16.03-6.46 18.45-6.46L18.45-6.46L19.46-6.46L19.46-7.01Q19.46-8.47 18.20-8.47L18.20-8.47Q17.03-8.47 17.03-7.31L17.03-7.31L13.74-7.31Q13.74-8.85 15.04-9.80Q16.35-10.76 18.37-10.76Q20.39-10.76 21.56-9.78Q22.73-8.79 22.76-7.07L22.76-7.07L22.76-2.39Q22.78-0.94 23.21-0.17L23.21-0.17L23.21 0ZM17.86-2.15L17.86-2.15Q18.48-2.15 18.88-2.41Q19.29-2.68 19.46-3.01L19.46-3.01L19.46-4.70L18.51-4.70Q16.79-4.70 16.79-3.15L16.79-3.15Q16.79-2.71 17.09-2.43Q17.39-2.15 17.86-2.15ZM27.01-10.57L28.65-3.92L30.32-10.57L33.79-10.57L30.34 0L26.98 0L23.54-10.57L27.01-10.57ZM43.87 0L40.58 0Q40.40-0.32 40.26-0.95L40.26-0.95Q39.36 0.20 37.72 0.20L37.72 0.20Q36.23 0.20 35.19-0.71Q34.14-1.61 34.14-2.98L34.14-2.98Q34.14-4.70 35.41-5.58Q36.68-6.46 39.10-6.46L39.10-6.46L40.12-6.46L40.12-7.01Q40.12-8.47 38.86-8.47L38.86-8.47Q37.69-8.47 37.69-7.31L37.69-7.31L34.39-7.31Q34.39-8.85 35.70-9.80Q37.00-10.76 39.02-10.76Q41.04-10.76 42.22-9.78Q43.39-8.79 43.42-7.07L43.42-7.07L43.42-2.39Q43.44-0.94 43.87-0.17L43.87-0.17L43.87 0ZM38.52-2.15L38.52-2.15Q39.13-2.15 39.54-2.41Q39.94-2.68 40.12-3.01L40.12-3.01L40.12-4.70L39.16-4.70Q37.44-4.70 37.44-3.15L37.44-3.15Q37.44-2.71 37.74-2.43Q38.05-2.15 38.52-2.15Z"></path></g></g></svg></svg><style>@media (prefers-color-scheme: light) { :root { filter: none; } }
@media (prefers-color-scheme: dark) { :root { filter: none; } }
</style></svg>